<?xml version="1.0" encoding="UTF-8"?>
<svg version="1.1" xmlns="http://www.w3.org/2000/svg" width="1024" height="1024">
<path d="M0 0 C337.92 0 675.84 0 1024 0 C1024 337.92 1024 675.84 1024 1024 C686.08 1024 348.16 1024 0 1024 C0 686.08 0 348.16 0 0 Z " fill="#111110" transform="translate(0,0)"/>
<path d="M0 0 C2.71533203 1.3125 2.71533203 1.3125 5.5078125 3 C7.08937134 3.94637329 7.08937134 3.94637329 8.70288086 4.91186523 C9.84371831 5.60769531 10.98442084 6.30374663 12.125 7 C13.32577541 7.72353125 14.5270386 8.44625354 15.72875977 9.16821289 C18.87037855 11.05900414 22.00474589 12.96147724 25.137146 14.86749268 C27.51914364 16.31560926 29.90451335 17.75810905 32.29005432 19.20037842 C38.69137109 23.07088688 45.08250667 26.95798375 51.47070312 30.85009766 C56.78755552 34.08944466 62.10745812 37.32377074 67.42843628 40.55633545 C68.59559949 41.26540922 69.76269408 41.97459596 70.92971802 42.68389893 C77.31066401 46.56158098 83.6991254 50.4261167 90.10546875 54.26171875 C90.67945908 54.60545532 91.2534494 54.94919189 91.84483337 55.30334473 C94.56458666 56.93145676 97.28567826 58.55727512 100.00854492 60.18017578 C102.6790765 61.77602206 105.34208163 63.38325468 108 65 C108.62036133 65.3717334 109.24072266 65.7434668 109.87988281 66.12646484 C113.36879645 68.30839618 115.6936917 70.59545233 118 74 C118.51898193 76.91706848 118.51898193 76.91706848 118.54589844 80.16723633 C118.56561707 81.38812454 118.58533569 82.60901276 118.60565186 83.86689758 C118.60749481 85.82963875 118.60749481 85.82963875 118.609375 87.83203125 C118.62436474 89.1925401 118.64109357 90.5530308 118.65948486 91.91349792 C118.70308266 95.48254251 118.72314023 99.05134166 118.73822021 102.62060547 C118.75781899 106.26739977 118.79978573 109.91393008 118.83984375 113.56054688 C118.91506319 120.70693053 118.96540445 127.85329483 119 135 C133.09562948 126.87877653 147.18998261 118.75760917 161.2109375 110.5078125 C163.03906079 109.43684109 164.87134609 108.37292092 166.70898438 107.31835938 C168.52389539 106.27397324 170.32020166 105.19726432 172.109375 104.109375 C177.02519728 102.22276212 181.40638241 102.02419929 186.37890625 103.89501953 C188.98825656 105.18451187 191.4892742 106.59017075 194 108.0625 C194.94931396 108.59979736 195.89862793 109.13709473 196.87670898 109.69067383 C206.13655273 114.97176694 215.26199511 120.48870626 224.37890625 126.01171875 C231.37883764 130.24440617 238.43582188 134.37590575 245.5 138.5 C255.82732035 144.53290814 266.11013339 150.63313388 276.35327148 156.80834961 C281.66947024 160.01138422 287.00306519 163.17784233 292.37207031 166.29150391 C306.4743428 174.4743428 306.4743428 174.4743428 311 179 C311.1047723 180.63338519 311.13964296 182.27129532 311.14717102 183.90802002 C311.15790398 185.50213966 311.15790398 185.50213966 311.16885376 187.12846375 C311.17288712 188.89260368 311.17288712 188.89260368 311.17700195 190.69238281 C311.18685875 192.53860985 311.18685875 192.53860985 311.19691467 194.4221344 C311.21328808 197.80867919 311.22488383 201.19516122 311.2331202 204.58173084 C311.23826616 206.69692291 311.24434215 208.81211055 311.25063133 210.9272995 C311.2696926 217.54330341 311.28392036 224.1592961 311.2922433 230.7753222 C311.30201289 238.41564144 311.32832085 246.05567073 311.36874419 253.6958878 C311.39890213 259.59827523 311.41371195 265.50057957 311.41702431 271.40304255 C311.4193757 274.92950329 311.42834649 278.45565462 311.45348549 281.98203278 C311.4810904 285.91812925 311.476936 289.85384448 311.4699707 293.79003906 C311.48278076 294.95803543 311.49559082 296.1260318 311.50878906 297.329422 C311.4577142 305.22935836 311.4577142 305.22935836 309.13088989 309.14697266 C306.69986181 311.26100095 304.2720608 312.95618119 301.50390625 314.609375 C300.40167725 315.27340332 299.29944824 315.93743164 298.16381836 316.62158203 C296.96352212 317.33129695 295.76307885 318.04076325 294.5625 318.75 C293.31931374 319.49391228 292.07656377 320.23855412 290.83422852 320.98388672 C280.55644171 327.13497336 270.22002746 333.19135509 259.85961914 339.20214844 C252.79892483 343.30985943 245.85334916 347.55453756 239 352 C249.64553383 359.2411583 260.360764 366.3298204 271.375 373 C272.78736938 373.85585693 272.78736938 373.85585693 274.22827148 374.72900391 C279.26750033 377.77192779 284.3236643 380.78475958 289.390625 383.78125 C290.43428223 384.40386719 291.47793945 385.02648437 292.55322266 385.66796875 C294.54723019 386.85720993 296.54663993 388.03745674 298.55224609 389.20703125 C304.32844799 392.6614164 308.91531042 395.83062084 312 402 C312.10138998 403.67149495 312.13945054 405.34699601 312.14717102 407.02154541 C312.15790398 408.61555931 312.15790398 408.61555931 312.16885376 410.24177551 C312.17154266 411.41270248 312.17423157 412.58362946 312.17700195 413.79003906 C312.18685875 415.6340757 312.18685875 415.6340757 312.19691467 417.5153656 C312.2166855 421.59878784 312.22831879 425.68217076 312.23828125 429.765625 C312.24232874 431.17149627 312.24644566 432.57736735 312.25063133 433.98323822 C312.26968591 440.58909597 312.28391549 447.19494254 312.2922433 453.8008225 C312.30201249 461.42414183 312.32832222 469.04717056 312.36874419 476.67038751 C312.39891867 482.56346896 312.41371349 488.45646719 312.41702431 494.3496244 C312.41937364 497.86883669 312.42831788 501.38773862 312.45348549 504.90686798 C312.48112689 508.83546717 312.47693095 512.76368515 312.4699707 516.69238281 C312.48278076 517.85521286 312.49559082 519.01804291 312.50878906 520.21611023 C312.46852823 526.44299181 312.26436037 530.31145085 308 535 C305.20117188 537.05126953 305.20117188 537.05126953 301.96875 538.8828125 C301.38536362 539.21884491 300.80197723 539.55487732 300.20091248 539.90109253 C298.30750535 540.98833922 296.40395262 542.05634847 294.5 543.125 C293.17301282 543.8838508 291.84692907 544.64428347 290.52172852 545.40625 C287.88601598 546.92079808 285.24728739 548.42984287 282.60595703 549.93457031 C278.01090889 552.55864032 273.46739684 555.26524 268.9375 558 C267.78399048 558.69343506 267.78399048 558.69343506 266.60717773 559.40087891 C261.82384471 562.28111306 257.05486551 565.1846312 252.2890625 568.09375 C249.88059465 569.56313436 247.4717341 571.03187234 245.0625 572.5 C244.46210907 572.86588226 243.86171814 573.23176453 243.24313354 573.60873413 C234.73338946 578.78923274 226.17012164 583.85892674 217.47583008 588.7253418 C213.09727699 591.18514041 208.80790816 593.72850378 204.578125 596.4375 C203.68480469 597.00170654 202.79148437 597.56591309 201.87109375 598.1472168 C200.17859482 599.22252746 198.4977924 600.31657935 196.83203125 601.43286133 C192.24208032 604.3291552 188.8250649 605.83836987 183.38525391 604.80786133 C178.36082713 603.10613889 174.01887886 600.26634102 169.5625 597.4375 C167.94299438 596.43734863 167.94299438 596.43734863 166.29077148 595.41699219 C164.00961254 594.00646817 161.73269389 592.59096122 159.4609375 591.16552734 C154.94110154 588.331715 150.38983857 585.54985529 145.84155273 582.76196289 C142.74621799 580.86272578 139.65561751 578.95605142 136.56640625 577.046875 C128.39547381 572.00208709 120.19679132 567.00262252 112 562 C112.01110306 562.92628204 112.02220612 563.85256409 112.03364563 564.80691528 C112.13392923 573.54635497 112.21000647 582.28560077 112.25906086 591.02548409 C112.28512848 595.51854164 112.32047407 600.01112284 112.37719727 604.50390625 C112.43161919 608.8416803 112.46144186 613.17899687 112.47438622 617.51708603 C112.48360793 619.17010574 112.5016163 620.82310108 112.52865028 622.47592545 C112.56507833 624.7958565 112.56993996 627.1139099 112.56762695 629.43408203 C112.57873001 630.75312531 112.58983307 632.07216858 112.60127258 633.43118286 C111.71713252 638.67894288 109.14791123 641.37297595 104.89794922 644.59228516 C104.20717285 644.98722168 103.51639648 645.3821582 102.8046875 645.7890625 C102.01674805 646.24901611 101.22880859 646.70896973 100.41699219 647.18286133 C99.57813477 647.65876709 98.73927734 648.13467285 97.875 648.625 C96.06397073 649.6816535 94.25410085 650.74029629 92.4453125 651.80078125 C91.07487793 652.60056396 91.07487793 652.60056396 89.67675781 653.41650391 C85.64832084 655.79961611 81.69694761 658.29742502 77.75 660.8125 C76.17066762 661.81525333 74.59123827 662.81785397 73.01171875 663.8203125 C72.20138184 664.3349707 71.39104492 664.84962891 70.55615234 665.37988281 C55.84761642 674.70231303 41.04210532 683.86042281 26.11865234 692.83422852 C20.76709123 696.05866557 15.45568602 699.32061448 10.25 702.77734375 C9.38544189 703.34686768 8.52088379 703.9163916 7.63012695 704.50317383 C6.05745854 705.54737535 4.49506777 706.60731174 2.94604492 707.6862793 C-0.46610479 709.94523956 -2.36463134 710.97891476 -6.53125 711.1171875 C-10.86719095 709.72070201 -14.01460625 707.64504764 -17.6875 705 C-25.41517817 699.64912621 -33.32594534 694.66118811 -41.375 689.8125 C-42.57389979 689.08887805 -43.77279296 688.36524515 -44.97167969 687.64160156 C-47.41621638 686.16721871 -49.86186118 684.6946922 -52.30810547 683.22314453 C-58.36058022 679.58086419 -64.39909596 675.91554329 -70.4375 672.25 C-71.02138489 671.89570923 -71.60526978 671.54141846 -72.20684814 671.1763916 C-81.5898624 665.48183213 -90.94622342 659.74583253 -100.26171875 653.94140625 C-103.39657549 651.98845011 -106.54476263 650.06057501 -109.70703125 648.15234375 C-110.44469727 647.7030249 -111.18236328 647.25370605 -111.94238281 646.79077148 C-113.30054726 645.96389269 -114.66284425 645.14374112 -116.03027344 644.33227539 C-120.86428825 641.37043477 -124.1847593 638.44572211 -126 633 C-126.08813433 631.20529613 -126.1176372 629.40745761 -126.11352539 627.6105957 C-126.11344986 626.50968094 -126.11337433 625.40876617 -126.11329651 624.27449036 C-126.10813522 623.08691635 -126.10297394 621.89934235 -126.09765625 620.67578125 C-126.09553383 618.85097481 -126.09553383 618.85097481 -126.09336853 616.98930359 C-126.08776312 613.0970109 -126.07520967 609.20477536 -126.0625 605.3125 C-126.0574857 602.67643312 -126.05292267 600.04036534 -126.04882812 597.40429688 C-126.03779193 590.93617836 -126.0210485 584.46809326 -126 578 C-126.66807175 578.39308853 -127.33614349 578.78617706 -128.02445984 579.19117737 C-140.11165167 586.30057635 -152.24193158 593.31420602 -164.5 600.125 C-165.62575439 600.75156494 -166.75150879 601.37812988 -167.91137695 602.02368164 C-170.00952461 603.18539021 -172.11173833 604.33979834 -174.21875 605.48535156 C-175.93757728 606.42141235 -177.64796987 607.37339264 -179.34375 608.35058594 C-182.36528646 610.02301781 -184.58892207 610.996862 -188.0703125 611.0234375 C-191.74179645 609.74086577 -194.70873024 607.82633424 -197.875 605.625 C-206.31166773 599.96258662 -214.99898202 594.7799524 -223.75 589.625 C-232.72037135 584.33327625 -241.67163303 579.02692744 -250.5 573.5 C-259.21223704 568.05110645 -268.03276073 562.79640362 -276.875 557.5625 C-281.61250916 554.7548522 -286.34910842 551.94566908 -291.08526611 549.13574219 C-292.33813329 548.39259238 -293.59117804 547.64974183 -294.84442139 546.90722656 C-298.67429998 544.63751392 -302.49547957 542.35375835 -306.3125 540.0625 C-307.26044434 539.50183838 -308.20838867 538.94117676 -309.18505859 538.36352539 C-310.04824707 537.84266357 -310.91143555 537.32180176 -311.80078125 536.78515625 C-312.91706909 536.11818726 -312.91706909 536.11818726 -314.0559082 535.43774414 C-317.0587108 533.2170353 -318.8080881 531.25517893 -319.38311005 527.49431038 C-319.38683876 526.54712576 -319.39056747 525.59994114 -319.39440918 524.62405396 C-319.40575897 523.53338623 -319.41710876 522.44271851 -319.42880249 521.31900024 C-319.42587189 520.12721161 -319.42294128 518.93542297 -319.41992188 517.70751953 C-319.42839142 516.44860901 -319.43686096 515.18969849 -319.44558716 513.89263916 C-319.46780141 510.44211094 -319.47073387 506.99182154 -319.46883965 503.54123163 C-319.46871992 500.65859417 -319.47728497 497.77600725 -319.48561716 494.89338386 C-319.50485149 488.09083487 -319.50773523 481.28840858 -319.50097656 474.48583984 C-319.49433779 467.47381316 -319.51719286 460.46231279 -319.55429029 453.45039284 C-319.58500575 447.42560902 -319.59634529 441.40099433 -319.59245348 435.3761338 C-319.59038757 431.77979105 -319.59583962 428.18385772 -319.62034607 424.58758926 C-319.64678522 420.57512947 -319.63287156 416.56377763 -319.61523438 412.55126953 C-319.62849762 411.36352936 -319.64176086 410.17578918 -319.65542603 408.95205688 C-319.56365812 399.97644648 -319.56365812 399.97644648 -316.61289978 396.33029175 C-314.16425985 394.14649371 -311.83954337 392.3221159 -309.03515625 390.625 C-307.60490112 389.74690674 -307.60490112 389.74690674 -306.14575195 388.85107422 C-305.12827881 388.24021973 -304.11080566 387.62936523 -303.0625 387 C-300.89004356 385.67022027 -298.71818113 384.33946967 -296.546875 383.0078125 C-295.45052734 382.33911133 -294.35417969 381.67041016 -293.22460938 380.98144531 C-288.38206021 378.00581471 -283.59737085 374.94219166 -278.8125 371.875 C-268.27450147 365.14257636 -257.65062201 358.55245505 -247 352 C-249.21179662 349.60698751 -251.4521712 347.9959993 -254.26171875 346.35546875 C-255.12104004 345.85072021 -255.98036133 345.34597168 -256.86572266 344.82592773 C-257.79690918 344.28524658 -258.7280957 343.74456543 -259.6875 343.1875 C-260.65993652 342.61781494 -261.63237305 342.04812988 -262.63427734 341.46118164 C-265.75323765 339.63568571 -268.87612485 337.81707094 -272 336 C-274.0300021 334.81780136 -276.05995063 333.63551074 -278.08984375 332.453125 C-279.58668701 331.58143677 -279.58668701 331.58143677 -281.11376953 330.69213867 C-285.09936742 328.36973782 -289.08295577 326.04392082 -293.06494141 323.71533203 C-295.02706814 322.56860916 -296.99029205 321.42376164 -298.95458984 320.28076172 C-301.74558362 318.65389563 -304.52981406 317.01602547 -307.3125 315.375 C-308.14861816 314.89023193 -308.98473633 314.40546387 -309.84619141 313.90600586 C-310.99933838 313.22163452 -310.99933838 313.22163452 -312.17578125 312.5234375 C-312.84520752 312.13075684 -313.51463379 311.73807617 -314.2043457 311.33349609 C-317.11243905 309.17387599 -318.81405078 307.17628721 -319.38869667 303.54116249 C-319.39502302 302.6161009 -319.40134937 301.69103931 -319.40786743 300.73794556 C-319.42210754 299.67252029 -319.43634766 298.60709503 -319.45101929 297.50938416 C-319.45123077 296.34564774 -319.45144226 295.18191132 -319.45166016 293.98291016 C-319.46334229 292.75326035 -319.47502441 291.52361053 -319.48706055 290.25669861 C-319.51490324 286.88664415 -319.52897887 283.51714505 -319.53470278 280.14701891 C-319.53905989 278.0403239 -319.54743679 275.93368374 -319.55720139 273.82700729 C-319.59093757 266.47383564 -319.60808163 259.12082436 -319.61083984 251.76757812 C-319.61387456 244.91896888 -319.65432047 238.07126239 -319.71198809 231.22291529 C-319.75979141 225.33825356 -319.78057193 219.45388962 -319.78063047 213.56903493 C-319.78116816 210.05632927 -319.79271816 206.54450796 -319.83180618 203.0320015 C-319.87438584 199.11293893 -319.86084952 195.19515181 -319.84228516 191.27587891 C-319.86273895 190.11619095 -319.88319275 188.95650299 -319.90426636 187.76167297 C-319.80411138 180.07636819 -319.80411138 180.07636819 -317.49172974 176.98105812 C-315.72991054 175.43866024 -314.00666287 174.20022733 -312 173 C-310.50098145 172.01604248 -310.50098145 172.01604248 -308.97167969 171.01220703 C-307.96524414 170.43325684 -306.95880859 169.85430664 -305.921875 169.2578125 C-305.08180405 168.77010124 -305.08180405 168.77010124 -304.22476196 168.27253723 C-302.40350913 167.2168633 -300.57677392 166.17108529 -298.75 165.125 C-297.45604941 164.37658509 -296.16260085 163.62730162 -294.86962891 162.87719727 C-292.87749315 161.72159623 -290.88508465 160.56650089 -288.8911438 159.41401672 C-282.3569152 155.63679795 -275.86325706 151.79318737 -269.375 147.9375 C-267.14325585 146.61323629 -264.911485 145.28901756 -262.6796875 143.96484375 C-261.02791504 142.98427002 -261.02791504 142.98427002 -259.34277344 141.98388672 C-253.73027671 138.65295271 -248.11497861 135.32674791 -242.5 132 C-240.27212752 130.67970082 -238.04426296 129.35938829 -235.81640625 128.0390625 C-231.71208165 125.60682605 -227.60745252 123.17510562 -223.50241089 120.74407959 C-221.06630075 119.30137259 -218.63031401 117.85845732 -216.19433594 116.41552734 C-214.49816635 115.41093107 -212.8018208 114.40663189 -211.10546875 113.40234375 C-210.05875 112.78230469 -209.01203125 112.16226563 -207.93359375 111.5234375 C-206.92925293 110.93401367 -205.92491211 110.34458984 -204.89013672 109.73730469 C-202.99796345 108.59989085 -201.12806732 107.42435817 -199.28564453 106.20800781 C-193.83227993 102.65693138 -190.53145797 100.93749736 -184 102 C-180.95248112 103.11829555 -178.19659173 104.59049778 -175.375 106.1875 C-174.56377686 106.6309375 -173.75255371 107.074375 -172.91674805 107.53125 C-157.2920173 116.15506794 -142.10944609 125.51270088 -127 135 C-126.99635437 134.27416718 -126.99270874 133.54833435 -126.98895264 132.80050659 C-126.95101178 125.94440556 -126.89409005 119.08869341 -126.81609726 112.23293877 C-126.77666697 108.70865959 -126.74445718 105.18462859 -126.72900391 101.66015625 C-126.71089674 97.60376248 -126.66092678 93.54829512 -126.609375 89.4921875 C-126.60814636 88.23260223 -126.60691772 86.97301697 -126.60565186 85.67526245 C-126.42170556 74.6603744 -126.42170556 74.6603744 -122 70 C-120.03076172 68.37939453 -120.03076172 68.37939453 -117.9296875 67.1328125 C-117.12958252 66.6483667 -116.32947754 66.1639209 -115.50512695 65.66479492 C-114.63718506 65.1566626 -113.76924316 64.64853027 -112.875 64.125 C-110.96986184 62.97818056 -109.0649229 61.83103013 -107.16015625 60.68359375 C-106.15484863 60.08401855 -105.14954102 59.48444336 -104.11376953 58.86669922 C-98.81578963 55.69056982 -93.56792556 52.43336998 -88.3125 49.1875 C-86.10970008 47.83150302 -83.90657175 46.4760394 -81.703125 45.12109375 C-80.60033203 44.44288574 -79.49753906 43.76467773 -78.36132812 43.06591797 C-74.98655246 40.99173496 -71.61058207 38.91950834 -68.234375 36.84765625 C-66.01029438 35.48196997 -63.78633491 34.11608636 -61.5625 32.75 C-59.92945923 31.74706909 -59.92945923 31.74706909 -58.26342773 30.72387695 C-52.69805081 27.2992568 -47.15583715 23.84375329 -41.64892578 20.32592773 C-33.56436868 15.16740048 -25.4085086 10.125552 -17.1875 5.1875 C-16.16640137 4.55763184 -15.14530273 3.92776367 -14.09326172 3.27880859 C-12.6452417 2.41956787 -12.6452417 2.41956787 -11.16796875 1.54296875 C-10.31485107 1.02758545 -9.4617334 0.51220215 -8.58276367 -0.01879883 C-5.23537847 -1.29048246 -3.42886846 -0.96063733 0 0 Z " fill="#131312" transform="translate(515,156)"/>
<path d="M0 0 C2.71533203 1.3125 2.71533203 1.3125 5.5078125 3 C7.08937134 3.94637329 7.08937134 3.94637329 8.70288086 4.91186523 C9.84371831 5.60769531 10.98442084 6.30374663 12.125 7 C13.32577541 7.72353125 14.5270386 8.44625354 15.72875977 9.16821289 C18.87037855 11.05900414 22.00474589 12.96147724 25.137146 14.86749268 C27.51914364 16.31560926 29.90451335 17.75810905 32.29005432 19.20037842 C38.69137109 23.07088688 45.08250667 26.95798375 51.47070312 30.85009766 C56.78755552 34.08944466 62.10745812 37.32377074 67.42843628 40.55633545 C68.59559949 41.26540922 69.76269408 41.97459596 70.92971802 42.68389893 C77.31066401 46.56158098 83.6991254 50.4261167 90.10546875 54.26171875 C90.67945908 54.60545532 91.2534494 54.94919189 91.84483337 55.30334473 C94.56458666 56.93145676 97.28567826 58.55727512 100.00854492 60.18017578 C102.6790765 61.77602206 105.34208163 63.38325468 108 65 C108.62036133 65.3717334 109.24072266 65.7434668 109.87988281 66.12646484 C113.36879645 68.30839618 115.6936917 70.59545233 118 74 C118.51898193 76.91706848 118.51898193 76.91706848 118.54589844 80.16723633 C118.56561707 81.38812454 118.58533569 82.60901276 118.60565186 83.86689758 C118.60749481 85.82963875 118.60749481 85.82963875 118.609375 87.83203125 C118.62436474 89.1925401 118.64109357 90.5530308 118.65948486 91.91349792 C118.70308266 95.48254251 118.72314023 99.05134166 118.73822021 102.62060547 C118.75781899 106.26739977 118.79978573 109.91393008 118.83984375 113.56054688 C118.91506319 120.70693053 118.96540445 127.85329483 119 135 C133.09562948 126.87877653 147.18998261 118.75760917 161.2109375 110.5078125 C163.03906079 109.43684109 164.87134609 108.37292092 166.70898438 107.31835938 C168.52389539 106.27397324 170.32020166 105.19726432 172.109375 104.109375 C177.02519728 102.22276212 181.40638241 102.02419929 186.37890625 103.89501953 C188.98825656 105.18451187 191.4892742 106.59017075 194 108.0625 C194.94931396 108.59979736 195.89862793 109.13709473 196.87670898 109.69067383 C206.13655273 114.97176694 215.26199511 120.48870626 224.37890625 126.01171875 C231.37883764 130.24440617 238.43582188 134.37590575 245.5 138.5 C255.82732035 144.53290814 266.11013339 150.63313388 276.35327148 156.80834961 C281.66947024 160.01138422 287.00306519 163.17784233 292.37207031 166.29150391 C306.4743428 174.4743428 306.4743428 174.4743428 311 179 C311.1047723 180.63338519 311.13964296 182.27129532 311.14717102 183.90802002 C311.15790398 185.50213966 311.15790398 185.50213966 311.16885376 187.12846375 C311.17288712 188.89260368 311.17288712 188.89260368 311.17700195 190.69238281 C311.18685875 192.53860985 311.18685875 192.53860985 311.19691467 194.4221344 C311.21328808 197.80867919 311.22488383 201.19516122 311.2331202 204.58173084 C311.23826616 206.69692291 311.24434215 208.81211055 311.25063133 210.9272995 C311.2696926 217.54330341 311.28392036 224.1592961 311.2922433 230.7753222 C311.30201289 238.41564144 311.32832085 246.05567073 311.36874419 253.6958878 C311.39890213 259.59827523 311.41371195 265.50057957 311.41702431 271.40304255 C311.4193757 274.92950329 311.42834649 278.45565462 311.45348549 281.98203278 C311.4810904 285.91812925 311.476936 289.85384448 311.4699707 293.79003906 C311.48278076 294.95803543 311.49559082 296.1260318 311.50878906 297.329422 C311.4577142 305.22935836 311.4577142 305.22935836 309.13088989 309.14697266 C306.69986181 311.26100095 304.2720608 312.95618119 301.50390625 314.609375 C300.40167725 315.27340332 299.29944824 315.93743164 298.16381836 316.62158203 C296.96352212 317.33129695 295.76307885 318.04076325 294.5625 318.75 C293.31931374 319.49391228 292.07656377 320.23855412 290.83422852 320.98388672 C280.55644171 327.13497336 270.22002746 333.19135509 259.85961914 339.20214844 C252.79892483 343.30985943 245.85334916 347.55453756 239 352 C249.64553383 359.2411583 260.360764 366.3298204 271.375 373 C272.78736938 373.85585693 272.78736938 373.85585693 274.22827148 374.72900391 C279.26750033 377.77192779 284.3236643 380.78475958 289.390625 383.78125 C290.43428223 384.40386719 291.47793945 385.02648437 292.55322266 385.66796875 C294.54723019 386.85720993 296.54663993 388.03745674 298.55224609 389.20703125 C304.32844799 392.6614164 308.91531042 395.83062084 312 402 C312.10138998 403.67149495 312.13945054 405.34699601 312.14717102 407.02154541 C312.15790398 408.61555931 312.15790398 408.61555931 312.16885376 410.24177551 C312.17154266 411.41270248 312.17423157 412.58362946 312.17700195 413.79003906 C312.18685875 415.6340757 312.18685875 415.6340757 312.19691467 417.5153656 C312.2166855 421.59878784 312.22831879 425.68217076 312.23828125 429.765625 C312.24232874 431.17149627 312.24644566 432.57736735 312.25063133 433.98323822 C312.26968591 440.58909597 312.28391549 447.19494254 312.2922433 453.8008225 C312.30201249 461.42414183 312.32832222 469.04717056 312.36874419 476.67038751 C312.39891867 482.56346896 312.41371349 488.45646719 312.41702431 494.3496244 C312.41937364 497.86883669 312.42831788 501.38773862 312.45348549 504.90686798 C312.48112689 508.83546717 312.47693095 512.76368515 312.4699707 516.69238281 C312.48278076 517.85521286 312.49559082 519.01804291 312.50878906 520.21611023 C312.46852823 526.44299181 312.26436037 530.31145085 308 535 C305.20117188 537.05126953 305.20117188 537.05126953 301.96875 538.8828125 C301.38536362 539.21884491 300.80197723 539.55487732 300.20091248 539.90109253 C298.30750535 540.98833922 296.40395262 542.05634847 294.5 543.125 C293.17301282 543.8838508 291.84692907 544.64428347 290.52172852 545.40625 C287.88601598 546.92079808 285.24728739 548.42984287 282.60595703 549.93457031 C278.01090889 552.55864032 273.46739684 555.26524 268.9375 558 C267.78399048 558.69343506 267.78399048 558.69343506 266.60717773 559.40087891 C261.82384471 562.28111306 257.05486551 565.1846312 252.2890625 568.09375 C249.88059465 569.56313436 247.4717341 571.03187234 245.0625 572.5 C244.46210907 572.86588226 243.86171814 573.23176453 243.24313354 573.60873413 C234.73338946 578.78923274 226.17012164 583.85892674 217.47583008 588.7253418 C213.09727699 591.18514041 208.80790816 593.72850378 204.578125 596.4375 C203.68480469 597.00170654 202.79148437 597.56591309 201.87109375 598.1472168 C200.17859482 599.22252746 198.4977924 600.31657935 196.83203125 601.43286133 C192.24208032 604.3291552 188.8250649 605.83836987 183.38525391 604.80786133 C178.36082713 603.10613889 174.01887886 600.26634102 169.5625 597.4375 C167.94299438 596.43734863 167.94299438 596.43734863 166.29077148 595.41699219 C164.00961254 594.00646817 161.73269389 592.59096122 159.4609375 591.16552734 C154.94110154 588.331715 150.38983857 585.54985529 145.84155273 582.76196289 C142.74621799 580.86272578 139.65561751 578.95605142 136.56640625 577.046875 C128.39547381 572.00208709 120.19679132 567.00262252 112 562 C112.01110306 562.92628204 112.02220612 563.85256409 112.03364563 564.80691528 C112.13392923 573.54635497 112.21000647 582.28560077 112.25906086 591.02548409 C112.28512848 595.51854164 112.32047407 600.01112284 112.37719727 604.50390625 C112.43161919 608.8416803 112.46144186 613.17899687 112.47438622 617.51708603 C112.48360793 619.17010574 112.5016163 620.82310108 112.52865028 622.47592545 C112.56507833 624.7958565 112.56993996 627.1139099 112.56762695 629.43408203 C112.57873001 630.75312531 112.58983307 632.07216858 112.60127258 633.43118286 C111.71713252 638.67894288 109.14791123 641.37297595 104.89794922 644.59228516 C104.20717285 644.98722168 103.51639648 645.3821582 102.8046875 645.7890625 C102.01674805 646.24901611 101.22880859 646.70896973 100.41699219 647.18286133 C99.57813477 647.65876709 98.73927734 648.13467285 97.875 648.625 C96.06397073 649.6816535 94.25410085 650.74029629 92.4453125 651.80078125 C91.07487793 652.60056396 91.07487793 652.60056396 89.67675781 653.41650391 C85.64832084 655.79961611 81.69694761 658.29742502 77.75 660.8125 C76.17066762 661.81525333 74.59123827 662.81785397 73.01171875 663.8203125 C72.20138184 664.3349707 71.39104492 664.84962891 70.55615234 665.37988281 C55.84761642 674.70231303 41.04210532 683.86042281 26.11865234 692.83422852 C20.76709123 696.05866557 15.45568602 699.32061448 10.25 702.77734375 C9.38544189 703.34686768 8.52088379 703.9163916 7.63012695 704.50317383 C6.05745854 705.54737535 4.49506777 706.60731174 2.94604492 707.6862793 C-0.46610479 709.94523956 -2.36463134 710.97891476 -6.53125 711.1171875 C-10.86719095 709.72070201 -14.01460625 707.64504764 -17.6875 705 C-25.41517817 699.64912621 -33.32594534 694.66118811 -41.375 689.8125 C-42.57389979 689.08887805 -43.77279296 688.36524515 -44.97167969 687.64160156 C-47.41621638 686.16721871 -49.86186118 684.6946922 -52.30810547 683.22314453 C-58.36058022 679.58086419 -64.39909596 675.91554329 -70.4375 672.25 C-71.02138489 671.89570923 -71.60526978 671.54141846 -72.20684814 671.1763916 C-81.5898624 665.48183213 -90.94622342 659.74583253 -100.26171875 653.94140625 C-103.39657549 651.98845011 -106.54476263 650.06057501 -109.70703125 648.15234375 C-110.44469727 647.7030249 -111.18236328 647.25370605 -111.94238281 646.79077148 C-113.30054726 645.96389269 -114.66284425 645.14374112 -116.03027344 644.33227539 C-120.86428825 641.37043477 -124.1847593 638.44572211 -126 633 C-126.08813433 631.20529613 -126.1176372 629.40745761 -126.11352539 627.6105957 C-126.11344986 626.50968094 -126.11337433 625.40876617 -126.11329651 624.27449036 C-126.10813522 623.08691635 -126.10297394 621.89934235 -126.09765625 620.67578125 C-126.09553383 618.85097481 -126.09553383 618.85097481 -126.09336853 616.98930359 C-126.08776312 613.0970109 -126.07520967 609.20477536 -126.0625 605.3125 C-126.0574857 602.67643312 -126.05292267 600.04036534 -126.04882812 597.40429688 C-126.03779193 590.93617836 -126.0210485 584.46809326 -126 578 C-126.66807175 578.39308853 -127.33614349 578.78617706 -128.02445984 579.19117737 C-140.11165167 586.30057635 -152.24193158 593.31420602 -164.5 600.125 C-165.62575439 600.75156494 -166.75150879 601.37812988 -167.91137695 602.02368164 C-170.00952461 603.18539021 -172.11173833 604.33979834 -174.21875 605.48535156 C-175.93757728 606.42141235 -177.64796987 607.37339264 -179.34375 608.35058594 C-182.36528646 610.02301781 -184.58892207 610.996862 -188.0703125 611.0234375 C-191.74179645 609.74086577 -194.70873024 607.82633424 -197.875 605.625 C-206.31166773 599.96258662 -214.99898202 594.7799524 -223.75 589.625 C-232.72037135 584.33327625 -241.67163303 579.02692744 -250.5 573.5 C-259.21223704 568.05110645 -268.03276073 562.79640362 -276.875 557.5625 C-281.61250916 554.7548522 -286.34910842 551.94566908 -291.08526611 549.13574219 C-292.33813329 548.39259238 -293.59117804 547.64974183 -294.84442139 546.90722656 C-298.67429998 544.63751392 -302.49547957 542.35375835 -306.3125 540.0625 C-307.26044434 539.50183838 -308.20838867 538.94117676 -309.18505859 538.36352539 C-310.04824707 537.84266357 -310.91143555 537.32180176 -311.80078125 536.78515625 C-312.91706909 536.11818726 -312.91706909 536.11818726 -314.0559082 535.43774414 C-317.0587108 533.2170353 -318.8080881 531.25517893 -319.38311005 527.49431038 C-319.38683876 526.54712576 -319.39056747 525.59994114 -319.39440918 524.62405396 C-319.40575897 523.53338623 -319.41710876 522.44271851 -319.42880249 521.31900024 C-319.42587189 520.12721161 -319.42294128 518.93542297 -319.41992188 517.70751953 C-319.42839142 516.44860901 -319.43686096 515.18969849 -319.44558716 513.89263916 C-319.46780141 510.44211094 -319.47073387 506.99182154 -319.46883965 503.54123163 C-319.46871992 500.65859417 -319.47728497 497.77600725 -319.48561716 494.89338386 C-319.50485149 488.09083487 -319.50773523 481.28840858 -319.50097656 474.48583984 C-319.49433779 467.47381316 -319.51719286 460.46231279 -319.55429029 453.45039284 C-319.58500575 447.42560902 -319.59634529 441.40099433 -319.59245348 435.3761338 C-319.59038757 431.77979105 -319.59583962 428.18385772 -319.62034607 424.58758926 C-319.64678522 420.57512947 -319.63287156 416.56377763 -319.61523438 412.55126953 C-319.62849762 411.36352936 -319.64176086 410.17578918 -319.65542603 408.95205688 C-319.56365812 399.97644648 -319.56365812 399.97644648 -316.61289978 396.33029175 C-314.16425985 394.14649371 -311.83954337 392.3221159 -309.03515625 390.625 C-307.60490112 389.74690674 -307.60490112 389.74690674 -306.14575195 388.85107422 C-305.12827881 388.24021973 -304.11080566 387.62936523 -303.0625 387 C-300.89004356 385.67022027 -298.71818113 384.33946967 -296.546875 383.0078125 C-295.45052734 382.33911133 -294.35417969 381.67041016 -293.22460938 380.98144531 C-288.38206021 378.00581471 -283.59737085 374.94219166 -278.8125 371.875 C-268.27450147 365.14257636 -257.65062201 358.55245505 -247 352 C-249.21179662 349.60698751 -251.4521712 347.9959993 -254.26171875 346.35546875 C-255.12104004 345.85072021 -255.98036133 345.34597168 -256.86572266 344.82592773 C-257.79690918 344.28524658 -258.7280957 343.74456543 -259.6875 343.1875 C-260.65993652 342.61781494 -261.63237305 342.04812988 -262.63427734 341.46118164 C-265.75323765 339.63568571 -268.87612485 337.81707094 -272 336 C-274.0300021 334.81780136 -276.05995063 333.63551074 -278.08984375 332.453125 C-279.58668701 331.58143677 -279.58668701 331.58143677 -281.11376953 330.69213867 C-285.09936742 328.36973782 -289.08295577 326.04392082 -293.06494141 323.71533203 C-295.02706814 322.56860916 -296.99029205 321.42376164 -298.95458984 320.28076172 C-301.74558362 318.65389563 -304.52981406 317.01602547 -307.3125 315.375 C-308.14861816 314.89023193 -308.98473633 314.40546387 -309.84619141 313.90600586 C-310.99933838 313.22163452 -310.99933838 313.22163452 -312.17578125 312.5234375 C-312.84520752 312.13075684 -313.51463379 311.73807617 -314.2043457 311.33349609 C-317.11243905 309.17387599 -318.81405078 307.17628721 -319.38869667 303.54116249 C-319.39502302 302.6161009 -319.40134937 301.69103931 -319.40786743 300.73794556 C-319.42210754 299.67252029 -319.43634766 298.60709503 -319.45101929 297.50938416 C-319.45123077 296.34564774 -319.45144226 295.18191132 -319.45166016 293.98291016 C-319.46334229 292.75326035 -319.47502441 291.52361053 -319.48706055 290.25669861 C-319.51490324 286.88664415 -319.52897887 283.51714505 -319.53470278 280.14701891 C-319.53905989 278.0403239 -319.54743679 275.93368374 -319.55720139 273.82700729 C-319.59093757 266.47383564 -319.60808163 259.12082436 -319.61083984 251.76757812 C-319.61387456 244.91896888 -319.65432047 238.07126239 -319.71198809 231.22291529 C-319.75979141 225.33825356 -319.78057193 219.45388962 -319.78063047 213.56903493 C-319.78116816 210.05632927 -319.79271816 206.54450796 -319.83180618 203.0320015 C-319.87438584 199.11293893 -319.86084952 195.19515181 -319.84228516 191.27587891 C-319.86273895 190.11619095 -319.88319275 188.95650299 -319.90426636 187.76167297 C-319.80411138 180.07636819 -319.80411138 180.07636819 -317.49172974 176.98105812 C-315.72991054 175.43866024 -314.00666287 174.20022733 -312 173 C-310.50098145 172.01604248 -310.50098145 172.01604248 -308.97167969 171.01220703 C-307.96524414 170.43325684 -306.95880859 169.85430664 -305.921875 169.2578125 C-305.08180405 168.77010124 -305.08180405 168.77010124 -304.22476196 168.27253723 C-302.40350913 167.2168633 -300.57677392 166.17108529 -298.75 165.125 C-297.45604941 164.37658509 -296.16260085 163.62730162 -294.86962891 162.87719727 C-292.87749315 161.72159623 -290.88508465 160.56650089 -288.8911438 159.41401672 C-282.3569152 155.63679795 -275.86325706 151.79318737 -269.375 147.9375 C-267.14325585 146.61323629 -264.911485 145.28901756 -262.6796875 143.96484375 C-261.02791504 142.98427002 -261.02791504 142.98427002 -259.34277344 141.98388672 C-253.73027671 138.65295271 -248.11497861 135.32674791 -242.5 132 C-240.27212752 130.67970082 -238.04426296 129.35938829 -235.81640625 128.0390625 C-231.71208165 125.60682605 -227.60745252 123.17510562 -223.50241089 120.74407959 C-221.06630075 119.30137259 -218.63031401 117.85845732 -216.19433594 116.41552734 C-214.49816635 115.41093107 -212.8018208 114.40663189 -211.10546875 113.40234375 C-210.05875 112.78230469 -209.01203125 112.16226563 -207.93359375 111.5234375 C-206.92925293 110.93401367 -205.92491211 110.34458984 -204.89013672 109.73730469 C-202.99796345 108.59989085 -201.12806732 107.42435817 -199.28564453 106.20800781 C-193.83227993 102.65693138 -190.53145797 100.93749736 -184 102 C-180.95248112 103.11829555 -178.19659173 104.59049778 -175.375 106.1875 C-174.56377686 106.6309375 -173.75255371 107.074375 -172.91674805 107.53125 C-157.2920173 116.15506794 -142.10944609 125.51270088 -127 135 C-126.99635437 134.27416718 -126.99270874 133.54833435 -126.98895264 132.80050659 C-126.95101178 125.94440556 -126.89409005 119.08869341 -126.81609726 112.23293877 C-126.77666697 108.70865959 -126.74445718 105.18462859 -126.72900391 101.66015625 C-126.71089674 97.60376248 -126.66092678 93.54829512 -126.609375 89.4921875 C-126.60814636 88.23260223 -126.60691772 86.97301697 -126.60565186 85.67526245 C-126.42170556 74.6603744 -126.42170556 74.6603744 -122 70 C-120.03076172 68.37939453 -120.03076172 68.37939453 -117.9296875 67.1328125 C-117.12958252 66.6483667 -116.32947754 66.1639209 -115.50512695 65.66479492 C-114.63718506 65.1566626 -113.76924316 64.64853027 -112.875 64.125 C-110.96986184 62.97818056 -109.0649229 61.83103013 -107.16015625 60.68359375 C-106.15484863 60.08401855 -105.14954102 59.48444336 -104.11376953 58.86669922 C-98.81578963 55.69056982 -93.56792556 52.43336998 -88.3125 49.1875 C-86.10970008 47.83150302 -83.90657175 46.4760394 -81.703125 45.12109375 C-80.60033203 44.44288574 -79.49753906 43.76467773 -78.36132812 43.06591797 C-74.98655246 40.99173496 -71.61058207 38.91950834 -68.234375 36.84765625 C-66.01029438 35.48196997 -63.78633491 34.11608636 -61.5625 32.75 C-59.92945923 31.74706909 -59.92945923 31.74706909 -58.26342773 30.72387695 C-52.69805081 27.2992568 -47.15583715 23.84375329 -41.64892578 20.32592773 C-33.56436868 15.16740048 -25.4085086 10.125552 -17.1875 5.1875 C-16.16640137 4.55763184 -15.14530273 3.92776367 -14.09326172 3.27880859 C-12.6452417 2.41956787 -12.6452417 2.41956787 -11.16796875 1.54296875 C-10.31485107 1.02758545 -9.4617334 0.51220215 -8.58276367 -0.01879883 C-5.23537847 -1.29048246 -3.42886846 -0.96063733 0 0 Z M-7.7265625 40.09765625 C-8.49822754 40.56139648 -9.26989258 41.02513672 -10.06494141 41.50292969 C-10.90976074 42.01758789 -11.75458008 42.53224609 -12.625 43.0625 C-13.5123584 43.59907227 -14.3997168 44.13564453 -15.31396484 44.68847656 C-23.13263793 49.43373343 -30.88948635 54.27719884 -38.63549805 59.13989258 C-46.20708081 63.89136395 -53.81577238 68.57947815 -61.4375 73.25 C-77.51844055 82.04942106 -77.51844055 82.04942106 -92 93 C-92.10732433 94.34025542 -92.14678281 95.68603578 -92.15821838 97.03053284 C-92.1680072 97.89856537 -92.17779602 98.7665979 -92.18788147 99.66093445 C-92.19363693 100.62046524 -92.1993924 101.57999603 -92.20532227 102.56860352 C-92.21522186 103.57336731 -92.22512146 104.5781311 -92.23532104 105.61334229 C-92.26704084 108.95183921 -92.29173473 112.29035039 -92.31640625 115.62890625 C-92.33696674 117.93676637 -92.35796296 120.24462264 -92.37937927 122.55247498 C-92.43469347 128.64013567 -92.48406138 134.72783086 -92.53222656 140.81555176 C-92.58237352 147.0222482 -92.63809502 153.22889426 -92.69335938 159.43554688 C-92.80105521 171.62365492 -92.90247463 183.81180663 -93 196 C-93.71983063 195.53882782 -94.43966125 195.07765564 -95.18130493 194.60250854 C-100.21164126 191.38880089 -105.24208723 188.20268525 -110.3984375 185.1953125 C-112.08428955 184.20978394 -112.08428955 184.20978394 -113.80419922 183.2043457 C-114.385224 182.86601715 -114.96624878 182.5276886 -115.56488037 182.17910767 C-117.43655249 181.08915543 -119.30657959 179.99642478 -121.17626953 178.90307617 C-125.11616064 176.59973101 -129.05791614 174.29958983 -133 172 C-137.35287949 169.46077402 -141.70494253 166.92016919 -146.05499268 164.37609863 C-147.26544771 163.66871779 -148.47634289 162.96208955 -149.68768311 162.25622559 C-156.10107513 158.51875486 -162.47118822 154.73293539 -168.7578125 150.78515625 C-169.81371582 150.12539795 -170.86961914 149.46563965 -171.95751953 148.78588867 C-173.93290701 147.54520838 -175.90057777 146.29212392 -177.85888672 145.0246582 C-178.7304541 144.47769287 -179.60202148 143.93072754 -180.5 143.3671875 C-181.2528125 142.88362793 -182.005625 142.40006836 -182.78125 141.90185547 C-185.68252578 140.7225737 -187.03906263 141.03799934 -190 142 C-191.83632185 142.90516849 -193.63559881 143.88745717 -195.40234375 144.921875 C-196.44616211 145.52854004 -197.48998047 146.13520508 -198.56542969 146.76025391 C-199.67821289 147.41687012 -200.79099609 148.07348633 -201.9375 148.75 C-203.10676473 149.4333477 -204.27636571 150.11612035 -205.44628906 150.79833984 C-208.96977838 152.85614175 -212.48520122 154.92738892 -216 157 C-217.49200928 157.87736816 -217.49200928 157.87736816 -219.01416016 158.77246094 C-224.45925177 161.97478999 -229.8954732 165.1918149 -235.32763672 168.41601562 C-238.86130506 170.51051957 -242.39880755 172.59832647 -245.94413757 174.67303467 C-247.75329015 175.74650953 -249.55137757 176.83907153 -251.33280945 177.95794678 C-256.2675646 181.01684903 -260.96486924 183.44007957 -266.45800781 185.34179688 C-273.58649858 188.1187542 -280.75702367 191.32083604 -285 198 C-289.73973746 209.89655878 -288.47957802 224.33252914 -288.09448242 236.86962891 C-287.93479158 242.09095826 -287.98806175 247.28517107 -288.09938431 252.50684834 C-289.16873452 272.63754515 -289.16873452 272.63754515 -282.86804199 291.09725952 C-277.79507364 295.75439605 -272.1132258 298.1583748 -265.5909729 300.16467285 C-262.23204244 301.24758877 -259.69201587 302.76890902 -256.7421875 304.69140625 C-255.92379395 305.17399902 -255.10540039 305.6565918 -254.26220703 306.15380859 C-249.83852066 308.76422692 -245.41844714 311.38072497 -241 314 C-240.16791016 314.49322754 -239.33582031 314.98645508 -238.47851562 315.49462891 C-218.71508989 327.22965271 -199.24006201 339.42599209 -180 352 C-180.50635986 352.30067383 -181.01271973 352.60134766 -181.53442383 352.91113281 C-190.75840406 358.39638996 -199.94969427 363.91926073 -209 369.6875 C-216.85409399 374.68760872 -224.78698705 379.55116652 -232.75 384.375 C-233.34613098 384.73620941 -233.94226196 385.09741882 -234.55645752 385.46957397 C-238.13126165 387.63513494 -241.70723432 389.79876043 -245.28356934 391.96179199 C-266.1888629 403.06431273 -266.1888629 403.06431273 -285 417 C-285.14319828 419.88942713 -285.22113973 422.75572772 -285.25634766 425.6472168 C-285.27095032 426.5545607 -285.28555298 427.4619046 -285.30059814 428.39674377 C-285.42668547 436.77708905 -285.49535068 445.15839694 -285.54844093 453.53949261 C-285.58422013 459.17408486 -285.63755439 464.80725148 -285.73388672 470.44116211 C-285.82665577 475.882469 -285.87535389 481.32251351 -285.89283371 486.76456642 C-285.90693953 488.83913262 -285.93660546 490.9136537 -285.98213577 492.98776817 C-286.72603683 503.78933284 -286.72603683 503.78933284 -283.14588928 513.50532532 C-280.80427535 515.097968 -278.66392587 516.06414176 -276 517 C-274.96125732 517.65073486 -273.92251465 518.30146973 -272.85229492 518.97192383 C-271.43074097 519.830802 -271.43074097 519.830802 -269.98046875 520.70703125 C-268.34464844 521.6976355 -268.34464844 521.6976355 -266.67578125 522.70825195 C-265.51303849 523.40969723 -264.35027759 524.11111246 -263.1875 524.8125 C-261.95820807 525.55602666 -260.72904402 526.29976479 -259.5 527.04370117 C-256.94757 528.5885019 -254.39459507 530.13239661 -251.84130859 531.67578125 C-248.10580735 533.93478064 -244.37451566 536.20065571 -240.64453125 538.46875 C-240.04925125 538.8306694 -239.45397125 539.19258881 -238.84065247 539.56547546 C-237.65042713 540.28911666 -236.46020595 541.01276468 -235.26998901 541.73641968 C-226.57406563 547.02318246 -217.86409936 552.28481295 -209.125 557.5 C-201.306742 562.16831383 -193.61490701 567.00744508 -186 572 C-178.23657591 567.81469303 -170.56738857 563.48598101 -162.9375 559.0625 C-161.21910058 558.06779265 -159.50069896 557.07308907 -157.78216553 556.07861328 C-156.60454148 555.39713355 -155.42701093 554.71549222 -154.24957275 554.03369141 C-150.34333587 551.77294584 -146.42965258 549.52559594 -142.51171875 547.28515625 C-127.31313231 538.58218792 -112.31370799 529.59171329 -97.38476562 520.43603516 C-95 519 -95 519 -93 518 C-93.04520782 519.22980591 -93.09041565 520.45961182 -93.13699341 521.72668457 C-93.54789323 533.37598904 -93.81862516 545.02147025 -93.95596504 556.6772995 C-94.03097897 562.66962784 -94.15342595 568.65276442 -94.38867188 574.64111328 C-96.78935912 599.73570907 -96.78935912 599.73570907 -89.51989746 622.67919922 C-83.92186424 628.41526317 -76.7876085 631.25251079 -69.29014587 633.76551819 C-64.0272727 635.74017872 -59.61119334 638.83707817 -55 642 C-53.2263744 643.14251151 -51.44943901 644.27991556 -49.66796875 645.41015625 C-48.76224121 645.98652832 -47.85651367 646.56290039 -46.92333984 647.15673828 C-40.35052722 651.30111237 -33.71968283 655.35269255 -27.09179688 659.40820312 C-26.06763672 660.03533203 -25.04347656 660.66246094 -23.98828125 661.30859375 C-22.49288818 662.21714111 -22.49288818 662.21714111 -20.96728516 663.14404297 C-18.94915841 664.40632695 -16.95945233 665.71496404 -14.99755859 667.06298828 C-14.04316895 667.71380371 -13.0887793 668.36461914 -12.10546875 669.03515625 C-11.2652417 669.62820557 -10.42501465 670.22125488 -9.55932617 670.83227539 C-6.23962484 672.34693069 -4.47341703 671.97390974 -1 671 C0.95090855 670.12037204 0.95090855 670.12037204 2.63671875 668.91796875 C3.28576172 668.48718018 3.93480469 668.0563916 4.60351562 667.61254883 C5.29123047 667.14228271 5.97894531 666.6720166 6.6875 666.1875 C8.21148012 665.17333699 9.73624781 664.16035667 11.26171875 663.1484375 C12.04595215 662.62475586 12.83018555 662.10107422 13.63818359 661.56152344 C17.38662094 659.08323057 21.19290118 656.69928774 25 654.3125 C33.49789144 648.96498603 41.95739303 643.55864794 50.40625 638.1340332 C51.375625 637.51230225 52.345 636.89057129 53.34375 636.25 C54.30077316 635.60461777 55.25779633 634.95923553 56.24382019 634.29429626 C58.98022336 632.52819192 61.74744222 631.1964337 64.73335266 629.90093994 C70.89503214 627.00847338 77.38785998 623.95874902 80.08045578 617.34684753 C81.78218711 609.40170867 81.32686357 601.30593379 81.07421875 593.234375 C81.06120349 590.62838513 81.05659762 588.02234093 81.06001282 585.4163208 C81.05399605 579.28376576 80.95177838 573.15685795 80.81374437 567.02600789 C80.6612195 560.03943782 80.61779978 553.05346793 80.58290613 546.06547499 C80.50880143 531.70788834 80.29974598 517.35456205 80 503 C80.53993151 503.34144326 81.07986301 503.68288652 81.63615608 504.03467655 C84.11547022 505.60229621 86.59508645 507.1694374 89.07470703 508.73657227 C89.92390213 509.27360023 90.77309723 509.8106282 91.64802551 510.36392975 C98.36016643 514.60532223 105.10412969 518.79041013 111.875 522.9375 C114.11474399 524.31223829 116.35432534 525.68724159 118.59375 527.0625 C120.22183594 528.06216797 120.22183594 528.06216797 121.8828125 529.08203125 C125.55370285 531.34068684 129.21642614 533.61225364 132.87768555 535.88647461 C142.07578472 541.59920548 151.30972261 547.25142714 160.5625 552.875 C161.14610291 553.23012665 161.72970581 553.5852533 162.33099365 553.95114136 C170.17207157 558.72071247 178.05642342 563.40341072 186 568 C204.47699404 557.16094066 204.47699404 557.16094066 222.71972656 545.93554688 C229.34894572 541.75409222 236.04940467 537.69058698 242.75 533.625 C243.85593506 532.953479 244.96187012 532.28195801 246.10131836 531.59008789 C247.21772705 530.91324951 248.33413574 530.23641113 249.484375 529.5390625 C250.58144272 528.84896088 251.67851044 528.15885925 252.80882263 527.44784546 C255.79839009 525.62750416 258.82998417 524.13865617 262.02297974 522.70777893 C271.52558127 518.3800761 271.52558127 518.3800761 278.15939331 510.71395111 C279.98174868 504.2319162 279.65330213 497.59443206 279.4453125 490.92578125 C279.44354452 488.78972379 279.44861747 486.65365083 279.46017456 484.5176239 C279.46257545 480.05726015 279.39632641 475.60499206 279.27783203 471.14624023 C279.1299624 465.4468346 279.13366114 459.75981464 279.18608284 454.05912495 C279.21343409 449.65441946 279.1711584 445.25252955 279.10705185 440.84828758 C279.08273621 438.7485901 279.07728103 436.64858184 279.09152603 434.54879189 C279.51228264 423.84480894 279.51228264 423.84480894 275.63302231 414.27157211 C271.85484671 410.92271036 267.58475889 409.02011211 263 407 C260.78313195 405.73180996 258.6481827 404.37222705 256.4921875 403 C254.28758723 401.66480092 252.08182095 400.33152553 249.875 399 C248.66263737 398.26647937 247.45040098 397.53275007 246.23828125 396.79882812 C243.73453053 395.2830572 241.23025426 393.7681604 238.72558594 392.25390625 C233.38918805 389.02671398 228.05951253 385.78845883 222.72958374 382.55059814 C219.84998269 380.80144692 216.96987975 379.05312245 214.08984375 377.3046875 C209.77980889 374.68795504 205.46997519 372.07089158 201.16030884 369.45355225 C198.58192931 367.88766935 196.00349133 366.32188272 193.42504883 364.75610352 C192.19682948 364.01022067 190.96863873 363.26429075 189.74047852 362.51831055 C188.03669369 361.48344166 186.33280212 360.44874854 184.62890625 359.4140625 C183.66025635 358.8257666 182.69160645 358.2374707 181.69360352 357.63134766 C180.80471436 357.09300293 179.9158252 356.5546582 179 356 C178.12077881 355.43458496 177.24155762 354.86916992 176.33569336 354.28662109 C174.00648619 352.75875424 174.00648619 352.75875424 171 353 C171 352.34 171 351.68 171 351 C171.7314624 350.72486572 172.4629248 350.44973145 173.21655273 350.16625977 C175.83922405 349.06736486 178.11796149 347.82945958 180.53515625 346.33984375 C181.41212158 345.80238525 182.28908691 345.26492676 183.19262695 344.71118164 C184.13968506 344.1258667 185.08674316 343.54055176 186.0625 342.9375 C188.14051752 341.66388711 190.21864747 340.39045767 192.296875 339.1171875 C193.39064453 338.44526367 194.48441406 337.77333984 195.61132812 337.08105469 C201.33840438 333.56393668 207.07198688 330.05763388 212.8125 326.5625 C213.39833862 326.20569153 213.98417725 325.84888306 214.58776855 325.48126221 C224.14417395 319.66763499 233.79847893 314.04098546 243.50683594 308.48413086 C251.08892259 304.13337934 258.59646 299.67196039 266.0625 295.125 C267.05096924 294.52341064 268.03943848 293.92182129 269.05786133 293.30200195 C273.25087039 290.94712591 273.25087039 290.94712591 277 288 C277.18569895 285.22406755 277.30604537 282.47138077 277.38330078 279.69165039 C277.41075378 278.81999237 277.43820679 277.94833435 277.4664917 277.05026245 C277.70682913 268.98213949 277.84992621 260.91202744 277.96293831 252.84121037 C278.04034257 247.41790872 278.14995924 241.99956477 278.33740234 236.57885742 C278.51778356 231.33815479 278.61373434 226.10199875 278.65185165 220.85839653 C278.68062982 218.86479562 278.73894857 216.87138427 278.82797623 214.87956429 C279.60259233 204.35446604 279.60259233 204.35446604 275.35945702 195.20910835 C271.2974037 192.0384315 266.85421234 189.91703002 262.12071133 187.93773079 C258.92140601 186.52307003 256.08027986 184.70667492 253.12890625 182.83203125 C252.05423096 182.17444824 250.97955566 181.51686523 249.87231445 180.83935547 C248.2339563 179.83606201 248.2339563 179.83606201 246.5625 178.8125 C236.33927184 172.57053654 226.03797876 166.48660194 215.62646484 160.56201172 C210.01593162 157.3593144 204.47132895 154.08103054 198.9921875 150.66015625 C197.8402173 149.94656839 196.68811936 149.23318671 195.53588867 148.52001953 C193.34931784 147.16008885 191.17187049 145.78534664 189.00512695 144.39404297 C188.02761475 143.78834473 187.05010254 143.18264648 186.04296875 142.55859375 C185.18727295 142.01517334 184.33157715 141.47175293 183.44995117 140.91186523 C181.01068957 139.73330497 181.01068957 139.73330497 178.46826172 140.6875 C177.24647217 141.3371875 177.24647217 141.3371875 176 142 C175.26257568 142.37970947 174.52515137 142.75941895 173.76538086 143.15063477 C171.15317189 144.61627722 168.54224162 146.08360603 165.9375 147.5625 C164.93452881 148.1304126 163.93155762 148.6983252 162.89819336 149.28344727 C153.65492214 154.55611221 144.56638839 160.07149884 135.48925781 165.62255859 C126.98335406 170.82062706 118.40511289 175.88174293 109.77514648 180.87133789 C101.47360954 185.68515165 93.28226243 190.67027098 85.1315918 195.73510742 C84.22449463 196.29431885 83.31739746 196.85353027 82.3828125 197.4296875 C81.58246582 197.92710449 80.78211914 198.42452148 79.95751953 198.93701172 C78 200 78 200 76 200 C74.63620378 198.39641543 73.33474041 196.73964875 72.0625 195.0625 C66.73382022 188.39088962 60.63677006 182.72442987 53.234375 178.375 C51 177 51 177 50 175 C50.72074707 174.72905518 51.44149414 174.45811035 52.18408203 174.17895508 C54.96745701 173.01362494 57.45779392 171.66972684 60.0546875 170.13671875 C61.47201172 169.30043945 61.47201172 169.30043945 62.91796875 168.44726562 C63.89378906 167.86654297 64.86960937 167.28582031 65.875 166.6875 C67.32712891 165.83381836 67.32712891 165.83381836 68.80859375 164.96289062 C71.55834077 163.33361875 74.29843128 161.70819597 77 160 C77.61143356 159.72824951 78.22286713 159.45649902 78.85282898 159.17651367 C81.11375426 157.99125781 82.43038704 157.02941789 84 155 C85.10383487 150.35958763 85.05981118 145.72170405 85.03515625 140.9765625 C85.04750358 139.58798733 85.06148122 138.19942579 85.07701111 136.81088257 C85.10083241 133.90370206 85.09789776 130.99801292 85.07739258 128.09082031 C85.05432921 124.37782104 85.1083253 120.67053192 85.18399906 116.95839882 C85.23199725 114.09089175 85.23326422 111.22474193 85.22134209 108.35691452 C85.22221118 106.98938448 85.23859743 105.62176749 85.2712574 104.25462723 C85.55625836 96.33703104 85.55625836 96.33703104 81.89129639 89.68630981 C79.3388767 87.87388135 76.79234686 86.40861204 74 85 C72.47656982 84.01314209 72.47656982 84.01314209 70.92236328 83.00634766 C70.06368652 82.48089355 69.20500977 81.95543945 68.3203125 81.4140625 C67.32354492 80.80224121 66.32677734 80.19041992 65.29980469 79.56005859 C64.25211914 78.92148926 63.20443359 78.28291992 62.125 77.625 C61.00512695 76.93873535 59.88525391 76.2524707 58.73144531 75.54541016 C52.78283581 71.90215167 46.82022555 68.28216608 40.8515625 64.671875 C39.07326579 63.59586361 37.29497936 62.51983523 35.51672363 61.4437561 C34.34171534 60.73295037 33.16650463 60.02247914 31.99108887 59.31234741 C22.75445616 53.72929103 13.61748651 48.00305805 4.57324219 42.11279297 C3.73180664 41.56896973 2.89037109 41.02514648 2.0234375 40.46484375 C1.29044434 39.986521 0.55745117 39.50819824 -0.19775391 39.01538086 C-3.37521568 37.22520699 -4.81017377 38.33716604 -7.7265625 40.09765625 Z " fill="#EFECE8" transform="translate(515,156)"/>
<path d="M0 0 C13.97227959 10.7497504 24.11082518 25.37437937 27 43 C27.28328496 46.86811592 27.30393237 50.72245568 27.30639648 54.59985352 C27.31472 55.7263884 27.32304352 56.85292328 27.33161926 58.01359558 C27.35561044 61.71873488 27.36447931 65.42369763 27.37109375 69.12890625 C27.38007013 71.72330271 27.38919215 74.31769866 27.39845276 76.91209412 C27.41491709 82.34644169 27.42267039 87.78071904 27.42553711 93.21508789 C27.42916237 99.45619757 27.45899859 105.69681253 27.50094169 111.93777138 C27.54011842 117.98353506 27.55113558 124.0290293 27.55226326 130.07493401 C27.55644129 132.62674575 27.56877701 135.17855883 27.58978081 137.73028755 C27.76588401 160.97978501 24.75009369 179.98437783 7.86328125 197.26953125 C-5.65128452 210.15722767 -21.20204677 215.51691531 -39.63623047 215.35131836 C-57.61018991 214.86365279 -71.95326604 207.2717808 -84.44140625 194.50390625 C-100.6513382 176.04488053 -101.46598156 154.75996657 -101.3984375 131.3359375 C-101.40046227 128.8512056 -101.40337705 126.36647427 -101.40713501 123.88174438 C-101.4115377 118.69584447 -101.40519258 113.51010043 -101.39111328 108.32421875 C-101.37400497 101.70279246 -101.38388648 95.08173063 -101.40183067 88.46031761 C-101.41270881 83.33683563 -101.40920398 78.21343903 -101.4014473 73.08995438 C-101.39945736 70.6492979 -101.40186176 68.20863348 -101.40888596 65.7679863 C-101.41656896 62.34951183 -101.40480118 58.93161539 -101.38818359 55.51318359 C-101.39425629 54.52168808 -101.40032898 53.53019257 -101.40658569 52.50865173 C-101.24514794 34.43521433 -93.6130163 18.74266552 -81 6 C-58.34576465 -13.92764833 -25.06285579 -17.18242641 0 0 Z " fill="#F0ECE8" transform="translate(548,357)"/>
<path d="M0 0 C3.62259904 1.8837515 5.68975631 4.06926894 7 8 C7.10538104 10.27956786 7.15527003 12.56183982 7.17578125 14.84375 C7.19552681 16.24025262 7.21657351 17.63673731 7.23876953 19.03320312 C7.25547699 20.12773804 7.25547699 20.12773804 7.27252197 21.24438477 C7.81601635 51.9090844 14.97101984 79.55271154 37.52001953 101.609375 C58.23053888 121.06947369 84.53787236 128.74180896 112.4921875 128.3125 C120.71378465 128.02727547 128.22297435 126.63415385 136 124 C136.65000977 123.78037598 137.30001953 123.56075195 137.96972656 123.33447266 C165.56142688 113.698518 184.41404856 94.94263175 197.04882812 69.0703125 C202.20875279 57.83926497 204.10059461 45.64818338 204.23828125 33.3828125 C204.2471788 32.63036758 204.25607635 31.87792267 204.26524353 31.10267639 C204.29481791 27.98399258 204.31470597 24.86590014 204.30541992 21.74707031 C204.3027964 19.43741571 204.33088983 17.12970577 204.36328125 14.8203125 C204.35307449 14.12334259 204.34286774 13.42637268 204.33235168 12.70828247 C204.44424933 7.09511395 206.17392972 4.80908801 210 1 C213.4492432 -0.7246216 217.22131431 -0.36610104 221 0 C223.85409463 1.21450835 225.38374829 2.08504172 227.11010742 4.64819336 C228.33254043 7.87883729 228.30456476 10.97204402 228.30078125 14.37890625 C228.30924828 15.45893921 228.30924828 15.45893921 228.31788635 16.56079102 C228.32991258 18.89491322 228.32365648 21.22837901 228.3125 23.5625 C228.30926727 24.75357864 228.30926727 24.75357864 228.30596924 25.96871948 C228.15303009 60.9029392 218.28466745 90.29174859 194 116 C193.31421875 116.75023437 192.6284375 117.50046875 191.921875 118.2734375 C175.8383326 135.25051004 154.41695669 145.4266924 132 151 C131.17242188 151.21527344 130.34484375 151.43054688 129.4921875 151.65234375 C125.69646001 152.18184179 121.83248162 152 118 152 C118 169.16 118 186.32 118 204 C131.55232525 203.84200353 131.55232525 203.84200353 145.10400391 203.63964844 C146.81151324 203.62795858 148.51903377 203.61776745 150.2265625 203.609375 C151.10272217 203.58891113 151.97888184 203.56844727 152.8815918 203.54736328 C158.57774145 203.54413142 161.61683927 204.29389882 166 208 C168.35242347 211.20785018 168.4684209 214.09649252 168 218 C165.96006092 221.6578218 164.49580738 223.66946174 161 226 C158.8360014 226.26006222 158.8360014 226.26006222 156.27580261 226.27415466 C154.81856026 226.28911736 154.81856026 226.28911736 153.33187866 226.30438232 C152.26740509 226.305047 151.20293152 226.30571167 150.10620117 226.30639648 C148.98398666 226.31472 147.86177216 226.32304352 146.70555115 226.33161926 C142.98465536 226.3557735 139.2639347 226.36449831 135.54296875 226.37109375 C132.960881 226.38005626 130.3787938 226.38917803 127.79670715 226.39845276 C122.37869656 226.41496031 116.96075669 226.42267916 111.54272461 226.42553711 C105.2867736 226.42917037 99.03131381 226.45904932 92.77551287 226.50094169 C86.75215158 226.5398593 80.72906196 226.55113051 74.70556068 226.55226326 C72.14548391 226.55647265 69.58540698 226.5689355 67.02541161 226.58978081 C63.44383324 226.61662125 59.86360984 226.61189003 56.28198242 226.59936523 C54.6943811 226.62161667 54.6943811 226.62161667 53.07470703 226.64431763 C45.05079396 226.56437247 45.05079396 226.56437247 41.3573761 223.58753967 C38.1353866 220.05096964 37.605464 217.93131533 37.640625 213.10546875 C38.27581814 209.38406547 40.33979016 207.59687151 43 205 C45.46161017 203.76919491 47.06496993 203.87956023 49.81689453 203.88647461 C50.83178955 203.88659546 51.84668457 203.88671631 52.89233398 203.88684082 C53.96169189 203.89195679 55.0310498 203.89707275 56.1328125 203.90234375 C57.1137085 203.90335083 58.09460449 203.90435791 59.10522461 203.90539551 C62.77849492 203.91063777 66.4517486 203.92459898 70.125 203.9375 C82.438125 203.9684375 82.438125 203.9684375 95 204 C95 186.84 95 169.68 95 152 C91.37 152 87.74 152 84 152 C80.8464485 151.42300112 77.9362962 150.80429028 74.875 149.9375 C74.06442139 149.71344482 73.25384277 149.48938965 72.41870117 149.25854492 C52.30261105 143.48899577 35.26640692 134.16503487 20.40039062 119.37695312 C19.14513548 118.14270643 17.8483443 116.95103971 16.546875 115.765625 C-5.16973725 95.56765696 -15.97162375 63.42492415 -17.14208984 34.48706055 C-17.22386822 31.24353081 -17.27568327 28.00228553 -17.29516602 24.7578125 C-17.30678475 23.41200327 -17.32738931 22.06624353 -17.35668945 20.72070312 C-17.39945279 18.74642252 -17.41294569 16.77157696 -17.42578125 14.796875 C-17.44036377 13.63510742 -17.45494629 12.47333984 -17.4699707 11.27636719 C-16.89484752 7.26693702 -15.51372006 5.14108506 -13 2 C-8.75417853 -0.83054764 -4.98515163 -0.77409187 0 0 Z " fill="#F0EDE9" transform="translate(405,475)"/>
<path d="M0 0 C3.75291193 3.71803357 5.20175562 7.88294833 6.75 12.8125 C15.60229085 39.19563067 31.85838193 65.01031721 56.15234375 79.578125 C58.29600624 81.22779339 59.08650653 82.46735145 60 85 C59.85713475 89.00022687 59.61728563 91.24332729 57.0625 94.375 C54.74452286 96.20128502 53.40900625 96.92842391 50.5 97.4375 C36.76286949 95.72035869 23.32128631 80.22924091 14.96875 69.90234375 C2.75034215 54.16590487 -16.66188614 26.72205464 -15.50390625 5.953125 C-14.78002865 3.14739787 -13.29358319 1.37512342 -10.91796875 -0.25 C-7.26760665 -1.67743284 -3.60088142 -1.47963491 0 0 Z " fill="#EFECE9" transform="translate(355,551)"/>
<path d="M0 0 C5.48642208 3.64343792 7.31131877 7.12276795 9.375 13.25 C9.96269214 14.8637191 10.55527438 16.47566437 11.15234375 18.0859375 C11.45382324 18.90288086 11.75530273 19.71982422 12.06591797 20.56152344 C16.37871624 31.82033922 21.84769307 42.28219167 29 52 C29.7528125 53.04929687 30.505625 54.09859375 31.28125 55.1796875 C38.92211169 65.51998817 48.09070221 74.336243 57.31689453 83.25097656 C59.71487754 85.74287536 59.98030894 86.79127473 60.3125 90.3125 C59.95124058 94.57536111 58.98007946 96.01992054 56 99 C52.84865754 100.57567123 50.35738958 100.9388256 47 100 C43.29302348 97.38368154 40.19485584 94.20888888 37 91 C36.10925781 90.15695312 35.21851563 89.31390625 34.30078125 88.4453125 C27.59365328 81.99651899 21.83066355 75.08024783 16.24609375 67.65625 C15.11174917 66.14853181 13.96289217 64.65175982 12.8125 63.15625 C2.74132626 49.78047238 -15.31045282 23.49342848 -13 6 C-9.33404658 0.37887142 -6.67491925 -0.66749193 0 0 Z " fill="#F0EDE9" transform="translate(316,575)"/>
<path d="M0 0 C0.99 0 1.98 0 3 0 C2.83923477 1.07407104 2.67846954 2.14814209 2.51283264 3.25476074 C1.82382202 8.80510745 1.82408581 14.33737498 1.79467773 19.92382812 C1.78477814 21.0954248 1.77487854 22.26702148 1.76467896 23.47412109 C1.73322349 27.32647721 1.70836983 31.17884563 1.68359375 35.03125 C1.66301043 37.71024989 1.64205956 40.38924439 1.62062073 43.0682373 C1.5708641 49.38615549 1.52586268 55.70409811 1.48259836 62.02206373 C1.43307969 69.21923905 1.37821619 76.41637058 1.32291877 83.61350346 C1.20936044 98.40896073 1.10246528 113.20446164 1 128 C0.34 127.67 -0.32 127.34 -1 127 C-1.89921758 123.70350812 -2.1267301 120.57354426 -2.13371277 117.16937256 C-2.13797775 116.22470627 -2.14224274 115.28003998 -2.14663696 114.30674744 C-2.14618378 113.28222977 -2.14573059 112.2577121 -2.14526367 111.20214844 C-2.14862228 110.11372147 -2.1519809 109.02529449 -2.15544128 107.90388489 C-2.1649398 104.30570331 -2.16689395 100.70756834 -2.16796875 97.109375 C-2.17118245 94.60459372 -2.17454661 92.09981263 -2.17805481 89.59503174 C-2.18404358 84.34281106 -2.18593786 79.09060218 -2.18530273 73.83837891 C-2.18470281 67.78484356 -2.19524001 61.73139757 -2.2110464 55.67788482 C-2.2257488 49.83717351 -2.22928938 43.99649728 -2.22869301 38.15576935 C-2.22987083 35.67913702 -2.23428148 33.20250399 -2.24202538 30.72588348 C-2.25185879 27.25565759 -2.24893369 23.78565951 -2.24291992 20.31542969 C-2.24853943 19.29900894 -2.25415894 18.2825882 -2.25994873 17.23536682 C-2.23341887 11.18907457 -1.52075593 5.85682242 0 0 Z " fill="#D9D8D6" transform="translate(449,392)"/>
<path d="M0 0 C3.35594194 1.2632842 5.63290296 2.25915079 8 5 C5.525 4.01 5.525 4.01 3 3 C2.99413376 3.86364166 2.98826752 4.72728333 2.98222351 5.61709595 C2.92424714 13.76815219 2.85214206 21.91893585 2.76428509 30.06972694 C2.7196152 34.25984386 2.68035177 38.4498643 2.65356445 42.64013672 C2.62749751 46.6862907 2.58707152 50.73207279 2.53681374 54.77799606 C2.52016786 56.3192519 2.50863939 57.86057202 2.50238609 59.40190506 C2.4927198 61.56601925 2.46463264 63.72918693 2.43237305 65.89306641 C2.41571846 67.73839462 2.41571846 67.73839462 2.39872742 69.6210022 C1.80039902 74.69150967 -0.10348798 78.66013255 -4 82 C-4.66 81.67 -5.32 81.34 -6 81 C-5.18860062 80.16604706 -4.37720123 79.33209412 -3.54121399 78.47286987 C-0.57588177 74.89276155 -0.3641736 72.10637376 -0.34057617 67.43408203 C-0.32485062 66.3354911 -0.32485062 66.3354911 -0.30880737 65.21470642 C-0.28017809 62.81197104 -0.28633393 60.41068704 -0.29296875 58.0078125 C-0.27984623 56.33485112 -0.2645403 54.66190557 -0.24714661 52.98898315 C-0.20734798 48.5995241 -0.19710952 44.21048 -0.19311523 39.82086182 C-0.18377404 35.33617608 -0.14635436 30.85173317 -0.11132812 26.3671875 C-0.04680463 17.57812046 -0.01352169 8.7892928 0 0 Z " fill="#2B2A29" transform="translate(627,718)"/>
<path d="M0 0 C0.99 0 1.98 0 3 0 C2.83923477 1.0835376 2.67846954 2.1670752 2.51283264 3.28344727 C1.84345165 8.67400743 1.82451672 14.03892546 1.79467773 19.46484375 C1.78477814 20.58767258 1.77487854 21.7105014 1.76467896 22.86735535 C1.73323698 26.55738254 1.70837524 30.24742258 1.68359375 33.9375 C1.66300927 36.50439782 1.64201241 39.07129237 1.62062073 41.63818359 C1.5711746 47.6904844 1.5258697 53.74280307 1.48259836 59.79515076 C1.43307016 66.69003554 1.37821025 73.58487475 1.32291877 80.47971535 C1.2093774 94.65310069 1.10247867 108.82653057 1 123 C0.67 123 0.34 123 0 123 C-0.15394477 107.55346677 -0.30197681 92.10688527 -0.4429636 76.66022873 C-0.50856365 69.48813678 -0.57610086 62.31607283 -0.64819336 55.14404297 C-0.71102174 48.89315301 -0.77022069 42.64224103 -0.82505554 36.39127564 C-0.85421892 33.08122763 -0.88574479 29.77122942 -0.92053413 26.46123505 C-0.95905593 22.76682539 -0.99116263 19.07241252 -1.02172852 15.37792969 C-1.03467453 14.27957291 -1.04762054 13.18121613 -1.06095886 12.04957581 C-1.0715181 10.53940132 -1.0715181 10.53940132 -1.08229065 8.99871826 C-1.09058679 8.12485851 -1.09888292 7.25099876 -1.10743046 6.35065842 C-1.0042513 4.09302157 -0.63422654 2.16286412 0 0 Z " fill="#E5E1DC" transform="translate(449,392)"/>
<path d="M0 0 C-3.89071844 2.59381229 -6.36166385 2.63187808 -11 3 C-11.66 2.67 -12.32 2.34 -13 2 C-13 2.66 -13 3.32 -13 4 C-15.10409639 4.02701408 -17.20829178 4.04640223 -19.3125 4.0625 C-20.48425781 4.07410156 -21.65601563 4.08570313 -22.86328125 4.09765625 C-26 4 -26 4 -29 3 C-30.3917773 2.78444749 -31.78831216 2.59806254 -33.1875 2.4375 C-34.445625 2.293125 -35.70375 2.14875 -37 2 C-36.67 1.34 -36.34 0.68 -36 0 C-35.23856689 0.00523682 -34.47713379 0.01047363 -33.69262695 0.01586914 C-30.23259308 0.03669525 -26.77257241 0.04967813 -23.3125 0.0625 C-22.11431641 0.07087891 -20.91613281 0.07925781 -19.68164062 0.08789062 C-18.52470703 0.09111328 -17.36777344 0.09433594 -16.17578125 0.09765625 C-14.58117065 0.10551147 -14.58117065 0.10551147 -12.9543457 0.11352539 C-1.30008627 -0.3343079 -1.30008627 -0.3343079 0 0 Z " fill="#1E1D1C" transform="translate(531,571)"/>
<path d="M0 0 C0.99 0 1.98 0 3 0 C2.67 6.27 2.34 12.54 2 19 C1.67 19 1.34 19 1 19 C0.67 21.64 0.34 24.28 0 27 C-0.33 27 -0.66 27 -1 27 C-1.02892385 22.87501462 -1.04677267 18.75005515 -1.0625 14.625 C-1.07087891 13.449375 -1.07925781 12.27375 -1.08789062 11.0625 C-1.09111328 9.94101562 -1.09433594 8.81953125 -1.09765625 7.6640625 C-1.10289307 6.62717285 -1.10812988 5.5902832 -1.11352539 4.52197266 C-1 2 -1 2 0 0 Z " fill="#E6E3DF" transform="translate(611,480)"/>
<path d="M0 0 C1.84271484 -0.02126953 1.84271484 -0.02126953 3.72265625 -0.04296875 C6.9375 0.1875 6.9375 0.1875 9.9375 2.1875 C6.2482187 3.34328988 2.72349595 3.35476606 -1.125 3.375 C-2.96771484 3.39626953 -2.96771484 3.39626953 -4.84765625 3.41796875 C-8.0625 3.1875 -8.0625 3.1875 -11.0625 1.1875 C-7.3732187 0.03171012 -3.84849595 0.02023394 0 0 Z " fill="#E3E0DE" transform="translate(512.0625,345.8125)"/>
<path d="M0 0 C0.99 0 1.98 0 3 0 C3 5.61 3 11.22 3 17 C2.01 16.67 1.02 16.34 0 16 C0 10.72 0 5.44 0 0 Z " fill="#E9E7E3" transform="translate(389,232)"/>
<path d="M0 0 C0.99 0.33 1.98 0.66 3 1 C3.66 5.29 4.32 9.58 5 14 C4.01 14.495 4.01 14.495 3 15 C1.37290727 11.44073466 0.90289187 8.88432533 1 5 C0.70250054 3.32656552 0.37872934 1.65694085 0 0 Z " fill="#E5E3E1" transform="translate(410,515)"/>
<path d="M0 0 C1.875 0.25 1.875 0.25 4 1 C6.33973329 4.15863994 6.40780793 7.16660546 6 11 C4.48046875 12.68359375 4.48046875 12.68359375 3 14 C3.03480469 13.38511719 3.06960938 12.77023437 3.10546875 12.13671875 C3.13253906 11.32847656 3.15960937 10.52023437 3.1875 9.6875 C3.22230469 8.88699219 3.25710938 8.08648438 3.29296875 7.26171875 C2.9343151 4.49291259 2.02945675 3.81639042 0 2 C0 1.34 0 0.68 0 0 Z " fill="#E4E2E0" transform="translate(567,682)"/>
<path d="M0 0 C1.98 0 3.96 0 6 0 C6 0.66 6 1.32 6 2 C7.65 2.33 9.3 2.66 11 3 C10.34 3.66 9.68 4.32 9 5 C6.6171875 4.7578125 6.6171875 4.7578125 3.875 4.125 C2.96492187 3.92132813 2.05484375 3.71765625 1.1171875 3.5078125 C0.41851563 3.34023438 -0.28015625 3.17265625 -1 3 C-0.67 2.01 -0.34 1.02 0 0 Z " fill="#282725" transform="translate(692,256)"/>
<path d="M0 0 C3 1 3 1 5 3 C6.33076989 3.34342449 7.66431979 3.67619874 9 4 C9.99 4.66 10.98 5.32 12 6 C8.80876679 7.00295901 7.4238722 7.18729237 4.3125 5.8125 C1.97284187 3.9787139 1.04097738 2.7443949 0 0 Z " fill="#1B1A19" transform="translate(461,588)"/>
<path d="M0 0 C0.78761719 0.27328125 1.57523437 0.5465625 2.38671875 0.828125 C4.3125 1.75 4.3125 1.75 5.3125 3.75 C2.3125 4.75 2.3125 4.75 -0.5625 3.375 C-1.59375 2.83875 -2.625 2.3025 -3.6875 1.75 C-6.42322585 1.05092586 -6.42322585 1.05092586 -8.6875 0.75 C-5.32392324 -1.37436427 -3.70474008 -1.34717821 0 0 Z " fill="#1A1A19" transform="translate(334.6875,257.25)"/>
<path d="M0 0 C0.66 0 1.32 0 2 0 C2 3.63 2 7.26 2 11 C1.01 10.34 0.02 9.68 -1 9 C-1.47114738 6.2572492 -1.17805784 3.80441103 -1 1 C-0.67 0.67 -0.34 0.34 0 0 Z " fill="#1C1A19" transform="translate(413,507)"/>
<path d="M0 0 C0.33 0.99 0.66 1.98 1 3 C-2 6 -2 6 -4 7 C-4.99 6.67 -5.98 6.34 -7 6 C-7 5.34 -7 4.68 -7 4 C-4.69 2.68 -2.38 1.36 0 0 Z " fill="#EFEEEC" transform="translate(693,503)"/>
<path d="M0 0 C0.33 0 0.66 0 1 0 C1.02705729 1.77074917 1.04642195 3.54161711 1.0625 5.3125 C1.07410156 6.29863281 1.08570313 7.28476562 1.09765625 8.30078125 C1 11 1 11 0 14 C-0.99 13.67 -1.98 13.34 -3 13 C-2.01 8.71 -1.02 4.42 0 0 Z " fill="#E5E4E3" transform="translate(608,523)"/>
<path d="M0 0 C4.40114397 0.50298788 6.71195019 2.08772731 10 5 C8.375 5.75 8.375 5.75 6 6 C2.75 4.1875 2.75 4.1875 0 2 C0 1.34 0 0.68 0 0 Z " fill="#E7E6E4" transform="translate(524,163)"/>
<path d="M0 0 C0 0.33 0 0.66 0 1 C-1.41433206 1.2236337 -2.83167618 1.42826476 -4.25 1.625 C-5.03890625 1.74101563 -5.8278125 1.85703125 -6.640625 1.9765625 C-9.32152459 2.00319395 -10.72694089 1.36592084 -13 0 C-8.38926889 -1.29676812 -4.66159911 -0.71109139 0 0 Z " fill="#E6E4E1" transform="translate(493,624)"/>
<path d="M0 0 C1.73662334 3.22515763 2.8905928 6.51329166 4 10 C3.34 10 2.68 10 2 10 C-1.07692308 4.58461538 -1.07692308 4.58461538 -0.6875 1.625 C-0.460625 1.08875 -0.23375 0.5525 0 0 Z " fill="#1A1A19" transform="translate(368,576)"/>
<path d="M0 0 C0.66 0.66 1.32 1.32 2 2 C1.01 3.98 0.02 5.96 -1 8 C-1.99 7.67 -2.98 7.34 -4 7 C-2.68 4.69 -1.36 2.38 0 0 Z " fill="#E7E5E4" transform="translate(602,545)"/>
<path d="M0 0 C1.9375 0.75 1.9375 0.75 3.9375 2.75 C2.2875 2.42 0.6375 2.09 -1.0625 1.75 C-1.3925 2.74 -1.7225 3.73 -2.0625 4.75 C-2.3925 4.09 -2.7225 3.43 -3.0625 2.75 C-3.7225 2.42 -4.3825 2.09 -5.0625 1.75 C-2.0625 -0.25 -2.0625 -0.25 0 0 Z " fill="#0D0D0D" transform="translate(329.0625,297.25)"/>
<path d="M0 0 C0.99 0.33 1.98 0.66 3 1 C1.02 3.31 -0.96 5.62 -3 8 C-4 5 -4 5 -3 2 C-2.01 1.34 -1.02 0.68 0 0 Z " fill="#1B1A1A" transform="translate(428,245)"/>
<path d="M0 0 C0.33 0.66 0.66 1.32 1 2 C0.67 2.66 0.34 3.32 0 4 C0.66 4.33 1.32 4.66 2 5 C0.02 5.99 0.02 5.99 -2 7 C-2.6875 5.1875 -2.6875 5.1875 -3 3 C-1.5625 1.25 -1.5625 1.25 0 0 Z " fill="#F4F3F0" transform="translate(447,681)"/>
<path d="M0 0 C0.99 0.66 1.98 1.32 3 2 C1.68 2.99 0.36 3.98 -1 5 C-2.32 4.34 -3.64 3.68 -5 3 C-3.35 2.01 -1.7 1.02 0 0 Z " fill="#E7E5E3" transform="translate(261,512)"/>
<path d="M0 0 C0.33 0.99 0.66 1.98 1 3 C-0.32 3.99 -1.64 4.98 -3 6 C-3.66 5.67 -4.32 5.34 -5 5 C-5 4.34 -5 3.68 -5 3 C-2.5 1.375 -2.5 1.375 0 0 Z " fill="#E9E6E4" transform="translate(717,488)"/>
<path d="M0 0 C0.66 0.99 1.32 1.98 2 3 C0.35 3.66 -1.3 4.32 -3 5 C-3.66 4.34 -4.32 3.68 -5 3 C-3.35 2.01 -1.7 1.02 0 0 Z M-5 5 C-3 6 -3 6 -3 6 Z " fill="#E4E2E0" transform="translate(413,678)"/>
<path d="M0 0 C0.99 0.33 1.98 0.66 3 1 C1.8125 2.5 1.8125 2.5 0 4 C-2.6875 4.1875 -2.6875 4.1875 -5 4 C-2.6875 1.9375 -2.6875 1.9375 0 0 Z " fill="#191918" transform="translate(289,536)"/>
<path d="M0 0 C1.65 0 3.3 0 5 0 C5 0.99 5 1.98 5 3 C3.02 3 1.04 3 -1 3 C-0.67 2.01 -0.34 1.02 0 0 Z " fill="#1C1B19" transform="translate(398,472)"/>
</svg>
